<?xml version="1.0" encoding="utf-8" standalone="no"?>
<!DOCTYPE svg PUBLIC "-//W3C//DTD SVG 1.1//EN"
  "http://www.w3.org/Graphics/SVG/1.1/DTD/svg11.dtd">
<!-- Created with matplotlib (http://matplotlib.org/) -->
<svg height="201pt" version="1.1" viewBox="0 0 120 201" width="120pt" xmlns="http://www.w3.org/2000/svg" xmlns:xlink="http://www.w3.org/1999/xlink">
 <defs>
  <style type="text/css">
*{stroke-linecap:butt;stroke-linejoin:round;}
  </style>
 </defs>
 <g id="figure_1">
  <g id="patch_1">
   <path d="M 0 201.6 
L 120.96 201.6 
L 120.96 0 
L 0 0 
z
" style="fill:#ffffff;"/>
  </g>
  <g id="axes_1">
   <g id="patch_2">
    <path d="M 45.102986 66.028949 
L 106.8 66.028949 
L 106.8 14.88 
L 45.102986 14.88 
z
" style="fill:#ffffff;"/>
   </g>
   <g id="matplotlib.axis_1">
    <g id="xtick_1">
     <g id="line2d_1">
      <defs>
       <path d="M 0 0 
L 0 2.5 
" id="ma959d0f938" style="stroke:#262626;stroke-width:0.6;"/>
      </defs>
      <g>
       <use style="fill:#262626;stroke:#262626;stroke-width:0.6;" x="52.815113" xlink:href="#ma959d0f938" y="66.028949"/>
      </g>
     </g>
    </g>
    <g id="xtick_2">
     <g id="line2d_2">
      <g>
       <use style="fill:#262626;stroke:#262626;stroke-width:0.6;" x="68.239366" xlink:href="#ma959d0f938" y="66.028949"/>
      </g>
     </g>
    </g>
    <g id="xtick_3">
     <g id="line2d_3">
      <g>
       <use style="fill:#262626;stroke:#262626;stroke-width:0.6;" x="83.66362" xlink:href="#ma959d0f938" y="66.028949"/>
      </g>
     </g>
    </g>
    <g id="xtick_4">
     <g id="line2d_4">
      <g>
       <use style="fill:#262626;stroke:#262626;stroke-width:0.6;" x="99.087873" xlink:href="#ma959d0f938" y="66.028949"/>
      </g>
     </g>
    </g>
   </g>
   <g id="matplotlib.axis_2">
    <g id="ytick_1">
     <g id="line2d_5">
      <defs>
       <path d="M 0 0 
L -4 0 
" id="ma8f838e2af" style="stroke:#262626;"/>
      </defs>
      <g>
       <use style="fill:#262626;stroke:#262626;" x="45.102986" xlink:href="#ma8f838e2af" y="53.717034"/>
      </g>
     </g>
     <g id="text_1">
      <!-- $\mathdefault{10^{-1}}$ -->
      <g style="fill:#262626;" transform="translate(23.622986 56.810784)">
       <text>
        <tspan style="font-family:Arial;font-size:6px;font-style:regular;font-weight:regular;" x="0 3.336914" y="-0.799625">10</tspan>
        <tspan style="font-family:Arial;font-size:4.2px;font-style:regular;font-weight:regular;" x="6.778369 9.231103" y="-4.98125">−1</tspan>
       </text>
      </g>
     </g>
    </g>
    <g id="ytick_2">
     <g id="line2d_6">
      <g>
       <use style="fill:#262626;stroke:#262626;" x="45.102986" xlink:href="#ma8f838e2af" y="22.777908"/>
      </g>
     </g>
     <g id="text_2">
      <!-- $\mathdefault{10^{0}}$ -->
      <g style="fill:#262626;" transform="translate(26.082986 25.871658)">
       <text>
        <tspan style="font-family:Arial;font-size:6px;font-style:regular;font-weight:regular;" x="0 3.336914" y="-0.799625">10</tspan>
        <tspan style="font-family:Arial;font-size:4.2px;font-style:regular;font-weight:regular;" x="6.778369" y="-4.98125">0</tspan>
       </text>
      </g>
     </g>
    </g>
    <g id="ytick_3">
     <g id="line2d_7">
      <defs>
       <path d="M 0 0 
L -2.5 0 
" id="m7e715013a7" style="stroke:#262626;stroke-width:0.4;"/>
      </defs>
      <g>
       <use style="fill:#262626;stroke:#262626;stroke-width:0.4;" x="45.102986" xlink:href="#m7e715013a7" y="66.028949"/>
      </g>
     </g>
    </g>
    <g id="ytick_4">
     <g id="line2d_8">
      <g>
       <use style="fill:#262626;stroke:#262626;stroke-width:0.4;" x="45.102986" xlink:href="#m7e715013a7" y="63.030638"/>
      </g>
     </g>
    </g>
    <g id="ytick_5">
     <g id="line2d_9">
      <g>
       <use style="fill:#262626;stroke:#262626;stroke-width:0.4;" x="45.102986" xlink:href="#m7e715013a7" y="60.58084"/>
      </g>
     </g>
    </g>
    <g id="ytick_6">
     <g id="line2d_10">
      <g>
       <use style="fill:#262626;stroke:#262626;stroke-width:0.4;" x="45.102986" xlink:href="#m7e715013a7" y="58.509565"/>
      </g>
     </g>
    </g>
    <g id="ytick_7">
     <g id="line2d_11">
      <g>
       <use style="fill:#262626;stroke:#262626;stroke-width:0.4;" x="45.102986" xlink:href="#m7e715013a7" y="56.715345"/>
      </g>
     </g>
    </g>
    <g id="ytick_8">
     <g id="line2d_12">
      <g>
       <use style="fill:#262626;stroke:#262626;stroke-width:0.4;" x="45.102986" xlink:href="#m7e715013a7" y="55.13273"/>
      </g>
     </g>
    </g>
    <g id="ytick_9">
     <g id="line2d_13">
      <g>
       <use style="fill:#262626;stroke:#262626;stroke-width:0.4;" x="45.102986" xlink:href="#m7e715013a7" y="44.403429"/>
      </g>
     </g>
    </g>
    <g id="ytick_10">
     <g id="line2d_14">
      <g>
       <use style="fill:#262626;stroke:#262626;stroke-width:0.4;" x="45.102986" xlink:href="#m7e715013a7" y="38.955319"/>
      </g>
     </g>
    </g>
    <g id="ytick_11">
     <g id="line2d_15">
      <g>
       <use style="fill:#262626;stroke:#262626;stroke-width:0.4;" x="45.102986" xlink:href="#m7e715013a7" y="35.089824"/>
      </g>
     </g>
    </g>
    <g id="ytick_12">
     <g id="line2d_16">
      <g>
       <use style="fill:#262626;stroke:#262626;stroke-width:0.4;" x="45.102986" xlink:href="#m7e715013a7" y="32.091513"/>
      </g>
     </g>
    </g>
    <g id="ytick_13">
     <g id="line2d_17">
      <g>
       <use style="fill:#262626;stroke:#262626;stroke-width:0.4;" x="45.102986" xlink:href="#m7e715013a7" y="29.641714"/>
      </g>
     </g>
    </g>
    <g id="ytick_14">
     <g id="line2d_18">
      <g>
       <use style="fill:#262626;stroke:#262626;stroke-width:0.4;" x="45.102986" xlink:href="#m7e715013a7" y="27.570439"/>
      </g>
     </g>
    </g>
    <g id="ytick_15">
     <g id="line2d_19">
      <g>
       <use style="fill:#262626;stroke:#262626;stroke-width:0.4;" x="45.102986" xlink:href="#m7e715013a7" y="25.776219"/>
      </g>
     </g>
    </g>
    <g id="ytick_16">
     <g id="line2d_20">
      <g>
       <use style="fill:#262626;stroke:#262626;stroke-width:0.4;" x="45.102986" xlink:href="#m7e715013a7" y="24.193605"/>
      </g>
     </g>
    </g>
    <g id="text_3">
     <text style="fill:#262626;font-family:Arial;font-size:8.8px;font-style:normal;font-weight:normal;text-anchor:middle;" transform="rotate(-90, 17.873986, 40.454475)" x="17.873986" y="40.454475">NA expression</text>
    </g>
   </g>
   <g id="PathCollection_1"/>
   <g id="PathCollection_2"/>
   <g id="line2d_21">
    <path clip-path="url(#p0445c5f116)" d="M 65.154516 25.776219 
" style="fill:none;stroke:#000000;stroke-linecap:round;stroke-width:2;"/>
   </g>
   <g id="line2d_22">
    <path clip-path="url(#p0445c5f116)" d="M 46.645411 22.777908 
L 58.984814 22.777908 
" style="fill:none;stroke:#000000;stroke-linecap:round;stroke-width:2;"/>
   </g>
   <g id="line2d_23">
    <path clip-path="url(#p0445c5f116)" d="M 62.069665 20.735585 
L 74.409068 20.735585 
" style="fill:none;stroke:#000000;stroke-linecap:round;stroke-width:2;"/>
   </g>
   <g id="line2d_24">
    <path clip-path="url(#p0445c5f116)" d="M 77.493918 58.43389 
L 89.833321 58.43389 
" style="fill:none;stroke:#000000;stroke-linecap:round;stroke-width:2;"/>
   </g>
   <g id="line2d_25">
    <path clip-path="url(#p0445c5f116)" style="fill:none;stroke:#000000;stroke-linecap:round;stroke-width:2;"/>
   </g>
   <g id="patch_3">
    <path d="M 45.102986 66.028949 
L 45.102986 14.88 
" style="fill:none;stroke:#262626;stroke-linecap:square;stroke-linejoin:miter;stroke-width:0.6;"/>
   </g>
   <g id="patch_4">
    <path d="M 45.102986 66.028949 
L 106.8 66.028949 
" style="fill:none;stroke:#262626;stroke-linecap:square;stroke-linejoin:miter;stroke-width:0.6;"/>
   </g>
   <g id="PathCollection_3">
    <defs>
     <path d="M 0 1.75 
C 0.464105 1.75 0.909265 1.565609 1.237437 1.237437 
C 1.565609 0.909265 1.75 0.464105 1.75 0 
C 1.75 -0.464105 1.565609 -0.909265 1.237437 -1.237437 
C 0.909265 -1.565609 0.464105 -1.75 0 -1.75 
C -0.464105 -1.75 -0.909265 -1.565609 -1.237437 -1.237437 
C -1.565609 -0.909265 -1.75 -0.464105 -1.75 0 
C -1.75 0.464105 -1.565609 0.909265 -1.237437 1.237437 
C -0.909265 1.565609 -0.464105 1.75 0 1.75 
z
" id="C0_0_532728ba66"/>
    </defs>
    <g clip-path="url(#p0445c5f116)">
     <use style="fill:#1f77b4;" x="52.815113" xlink:href="#C0_0_532728ba66" y="24.7726"/>
    </g>
    <g clip-path="url(#p0445c5f116)">
     <use style="fill:#1f77b4;" x="52.815113" xlink:href="#C0_0_532728ba66" y="22.971641"/>
    </g>
    <g clip-path="url(#p0445c5f116)">
     <use style="fill:#1f77b4;" x="52.815113" xlink:href="#C0_0_532728ba66" y="20.873443"/>
    </g>
   </g>
   <g id="PathCollection_4">
    <defs>
     <path d="M 0 1.75 
C 0.464105 1.75 0.909265 1.565609 1.237437 1.237437 
C 1.565609 0.909265 1.75 0.464105 1.75 0 
C 1.75 -0.464105 1.565609 -0.909265 1.237437 -1.237437 
C 0.909265 -1.565609 0.464105 -1.75 0 -1.75 
C -0.464105 -1.75 -0.909265 -1.565609 -1.237437 -1.237437 
C -1.565609 -0.909265 -1.75 -0.464105 -1.75 0 
C -1.75 0.464105 -1.565609 0.909265 -1.237437 1.237437 
C -0.909265 1.565609 -0.464105 1.75 0 1.75 
z
" id="C1_0_79973416b3"/>
    </defs>
    <g clip-path="url(#p0445c5f116)">
     <use style="fill:#1f77b4;" x="68.239366" xlink:href="#C1_0_79973416b3" y="21.477028"/>
    </g>
    <g clip-path="url(#p0445c5f116)">
     <use style="fill:#1f77b4;" x="68.239366" xlink:href="#C1_0_79973416b3" y="20.630097"/>
    </g>
    <g clip-path="url(#p0445c5f116)">
     <use style="fill:#1f77b4;" x="66.175081" xlink:href="#C1_0_79973416b3" y="20.13381"/>
    </g>
   </g>
   <g id="PathCollection_5">
    <defs>
     <path d="M 0 1.75 
C 0.464105 1.75 0.909265 1.565609 1.237437 1.237437 
C 1.565609 0.909265 1.75 0.464105 1.75 0 
C 1.75 -0.464105 1.565609 -0.909265 1.237437 -1.237437 
C 0.909265 -1.565609 0.464105 -1.75 0 -1.75 
C -0.464105 -1.75 -0.909265 -1.565609 -1.237437 -1.237437 
C -1.565609 -0.909265 -1.75 -0.464105 -1.75 0 
C -1.75 0.464105 -1.565609 0.909265 -1.237437 1.237437 
C -0.909265 1.565609 -0.464105 1.75 0 1.75 
z
" id="C2_0_e77c792110"/>
    </defs>
    <g clip-path="url(#p0445c5f116)">
     <use style="fill:#1f77b4;" x="83.66362" xlink:href="#C2_0_e77c792110" y="59.697328"/>
    </g>
    <g clip-path="url(#p0445c5f116)">
     <use style="fill:#1f77b4;" x="80.813181" xlink:href="#C2_0_e77c792110" y="58.827187"/>
    </g>
    <g clip-path="url(#p0445c5f116)">
     <use style="fill:#1f77b4;" x="86.444148" xlink:href="#C2_0_e77c792110" y="56.928057"/>
    </g>
   </g>
   <g id="PathCollection_6">
    <defs>
     <path d="M 0 1.75 
C 0.464105 1.75 0.909265 1.565609 1.237437 1.237437 
C 1.565609 0.909265 1.75 0.464105 1.75 0 
C 1.75 -0.464105 1.565609 -0.909265 1.237437 -1.237437 
C 0.909265 -1.565609 0.464105 -1.75 0 -1.75 
C -0.464105 -1.75 -0.909265 -1.565609 -1.237437 -1.237437 
C -1.565609 -0.909265 -1.75 -0.464105 -1.75 0 
C -1.75 0.464105 -1.565609 0.909265 -1.237437 1.237437 
C -0.909265 1.565609 -0.464105 1.75 0 1.75 
z
" id="C3_0_b634044040"/>
    </defs>
    <g clip-path="url(#p0445c5f116)">
     <use style="fill:#1f77b4;" x="99.087873" xlink:href="#C3_0_b634044040" y="30961.903391"/>
    </g>
    <g clip-path="url(#p0445c5f116)">
     <use style="fill:#1f77b4;" x="96.23123" xlink:href="#C3_0_b634044040" y="30961.903391"/>
    </g>
    <g clip-path="url(#p0445c5f116)">
     <use style="fill:#1f77b4;" x="101.939599" xlink:href="#C3_0_b634044040" y="104.661727"/>
    </g>
   </g>
  </g>
  <g id="axes_2">
   <g id="patch_5">
    <path d="M 45.102986 134.937899 
L 106.8 134.937899 
L 106.8 83.788949 
L 45.102986 83.788949 
z
" style="fill:#ffffff;"/>
   </g>
   <g id="matplotlib.axis_3">
    <g id="xtick_5">
     <g id="line2d_26">
      <g>
       <use style="fill:#262626;stroke:#262626;stroke-width:0.6;" x="52.815113" xlink:href="#ma959d0f938" y="134.937899"/>
      </g>
     </g>
     <g id="text_4">
      <!-- 1$_{wt}$ 43$_{wt}$ -->
      <g style="fill:#262626;" transform="translate(55.141753 176.517899)rotate(-90)">
       <text>
        <tspan style="font-family:Arial;font-size:9px;font-style:regular;font-weight:regular;" x="0 12.960352 15.46084 20.466211" y="-0.53125">1 43</tspan>
        <tspan style="font-family:DejaVu Sans;font-size:6.3px;font-style:oblique;font-weight:oblique;" x="5.091504 10.244092 25.557715 30.710303" y="0.9453125">wtwt</tspan>
       </text>
      </g>
     </g>
    </g>
    <g id="xtick_6">
     <g id="line2d_27">
      <g>
       <use style="fill:#262626;stroke:#262626;stroke-width:0.6;" x="68.239366" xlink:href="#ma959d0f938" y="134.937899"/>
      </g>
     </g>
     <g id="text_5">
      <!-- 1$_{wt}$ 43$_{GUA}$ -->
      <g style="fill:#262626;" transform="translate(70.566007 182.727899)rotate(-90)">
       <text>
        <tspan style="font-family:Arial;font-size:9px;font-style:regular;font-weight:regular;" x="0 12.960352 15.46084 20.466211" y="-0.53125">1 43</tspan>
        <tspan style="font-family:DejaVu Sans;font-size:6.3px;font-style:oblique;font-weight:oblique;" x="5.091504 10.244092 25.557715 30.4396 35.050781" y="0.9453125">wtGUA</tspan>
       </text>
      </g>
     </g>
    </g>
    <g id="xtick_7">
     <g id="line2d_28">
      <g>
       <use style="fill:#262626;stroke:#262626;stroke-width:0.6;" x="83.66362" xlink:href="#ma959d0f938" y="134.937899"/>
      </g>
     </g>
     <g id="text_6">
      <!-- 1$_{GUA}$ 43$_{wt}$ -->
      <g style="fill:#262626;" transform="translate(85.99026 182.727899)rotate(-90)">
       <text>
        <tspan style="font-family:Arial;font-size:9px;font-style:regular;font-weight:regular;" x="0 19.140381 21.640869 26.64624" y="-0.53125">1 43</tspan>
        <tspan style="font-family:DejaVu Sans;font-size:6.3px;font-style:oblique;font-weight:oblique;" x="5.091504 9.973389 14.58457 31.737744 36.890332" y="0.9453125">GUAwt</tspan>
       </text>
      </g>
     </g>
    </g>
    <g id="xtick_8">
     <g id="line2d_29">
      <g>
       <use style="fill:#262626;stroke:#262626;stroke-width:0.6;" x="99.087873" xlink:href="#ma959d0f938" y="134.937899"/>
      </g>
     </g>
     <g id="text_7">
      <!-- 1$_{GUA}$ 43$_{GUA}$ -->
      <g style="fill:#262626;" transform="translate(101.414514 188.847899)rotate(-90)">
       <text>
        <tspan style="font-family:Arial;font-size:9px;font-style:regular;font-weight:regular;" x="0 19.140381 21.640869 26.64624" y="-0.53125">1 43</tspan>
        <tspan style="font-family:DejaVu Sans;font-size:6.3px;font-style:oblique;font-weight:oblique;" x="5.091504 9.973389 14.58457 31.737744 36.619629 41.230811" y="0.9453125">GUAGUA</tspan>
       </text>
      </g>
     </g>
    </g>
   </g>
   <g id="matplotlib.axis_4">
    <g id="ytick_17">
     <g id="line2d_30">
      <g>
       <use style="fill:#262626;stroke:#262626;" x="45.102986" xlink:href="#ma8f838e2af" y="122.625983"/>
      </g>
     </g>
     <g id="text_8">
      <!-- $\mathdefault{10^{-1}}$ -->
      <g style="fill:#262626;" transform="translate(23.622986 125.719733)">
       <text>
        <tspan style="font-family:Arial;font-size:6px;font-style:regular;font-weight:regular;" x="0 3.336914" y="-0.799625">10</tspan>
        <tspan style="font-family:Arial;font-size:4.2px;font-style:regular;font-weight:regular;" x="6.778369 9.231103" y="-4.98125">−1</tspan>
       </text>
      </g>
     </g>
    </g>
    <g id="ytick_18">
     <g id="line2d_31">
      <g>
       <use style="fill:#262626;stroke:#262626;" x="45.102986" xlink:href="#ma8f838e2af" y="91.686857"/>
      </g>
     </g>
     <g id="text_9">
      <!-- $\mathdefault{10^{0}}$ -->
      <g style="fill:#262626;" transform="translate(26.082986 94.780607)">
       <text>
        <tspan style="font-family:Arial;font-size:6px;font-style:regular;font-weight:regular;" x="0 3.336914" y="-0.799625">10</tspan>
        <tspan style="font-family:Arial;font-size:4.2px;font-style:regular;font-weight:regular;" x="6.778369" y="-4.98125">0</tspan>
       </text>
      </g>
     </g>
    </g>
    <g id="ytick_19">
     <g id="line2d_32">
      <g>
       <use style="fill:#262626;stroke:#262626;stroke-width:0.4;" x="45.102986" xlink:href="#m7e715013a7" y="134.937899"/>
      </g>
     </g>
    </g>
    <g id="ytick_20">
     <g id="line2d_33">
      <g>
       <use style="fill:#262626;stroke:#262626;stroke-width:0.4;" x="45.102986" xlink:href="#m7e715013a7" y="131.939588"/>
      </g>
     </g>
    </g>
    <g id="ytick_21">
     <g id="line2d_34">
      <g>
       <use style="fill:#262626;stroke:#262626;stroke-width:0.4;" x="45.102986" xlink:href="#m7e715013a7" y="129.489789"/>
      </g>
     </g>
    </g>
    <g id="ytick_22">
     <g id="line2d_35">
      <g>
       <use style="fill:#262626;stroke:#262626;stroke-width:0.4;" x="45.102986" xlink:href="#m7e715013a7" y="127.418514"/>
      </g>
     </g>
    </g>
    <g id="ytick_23">
     <g id="line2d_36">
      <g>
       <use style="fill:#262626;stroke:#262626;stroke-width:0.4;" x="45.102986" xlink:href="#m7e715013a7" y="125.624294"/>
      </g>
     </g>
    </g>
    <g id="ytick_24">
     <g id="line2d_37">
      <g>
       <use style="fill:#262626;stroke:#262626;stroke-width:0.4;" x="45.102986" xlink:href="#m7e715013a7" y="124.04168"/>
      </g>
     </g>
    </g>
    <g id="ytick_25">
     <g id="line2d_38">
      <g>
       <use style="fill:#262626;stroke:#262626;stroke-width:0.4;" x="45.102986" xlink:href="#m7e715013a7" y="113.312378"/>
      </g>
     </g>
    </g>
    <g id="ytick_26">
     <g id="line2d_39">
      <g>
       <use style="fill:#262626;stroke:#262626;stroke-width:0.4;" x="45.102986" xlink:href="#m7e715013a7" y="107.864269"/>
      </g>
     </g>
    </g>
    <g id="ytick_27">
     <g id="line2d_40">
      <g>
       <use style="fill:#262626;stroke:#262626;stroke-width:0.4;" x="45.102986" xlink:href="#m7e715013a7" y="103.998773"/>
      </g>
     </g>
    </g>
    <g id="ytick_28">
     <g id="line2d_41">
      <g>
       <use style="fill:#262626;stroke:#262626;stroke-width:0.4;" x="45.102986" xlink:href="#m7e715013a7" y="101.000462"/>
      </g>
     </g>
    </g>
    <g id="ytick_29">
     <g id="line2d_42">
      <g>
       <use style="fill:#262626;stroke:#262626;stroke-width:0.4;" x="45.102986" xlink:href="#m7e715013a7" y="98.550664"/>
      </g>
     </g>
    </g>
    <g id="ytick_30">
     <g id="line2d_43">
      <g>
       <use style="fill:#262626;stroke:#262626;stroke-width:0.4;" x="45.102986" xlink:href="#m7e715013a7" y="96.479389"/>
      </g>
     </g>
    </g>
    <g id="ytick_31">
     <g id="line2d_44">
      <g>
       <use style="fill:#262626;stroke:#262626;stroke-width:0.4;" x="45.102986" xlink:href="#m7e715013a7" y="94.685169"/>
      </g>
     </g>
    </g>
    <g id="ytick_32">
     <g id="line2d_45">
      <g>
       <use style="fill:#262626;stroke:#262626;stroke-width:0.4;" x="45.102986" xlink:href="#m7e715013a7" y="93.102554"/>
      </g>
     </g>
    </g>
    <g id="text_10">
     <text style="fill:#262626;font-family:Arial;font-size:8.8px;font-style:normal;font-weight:normal;text-anchor:middle;" transform="rotate(-90, 17.770861, 109.363424)" x="17.770861" y="109.363424">NA activity</text>
    </g>
   </g>
   <g id="PathCollection_7"/>
   <g id="PathCollection_8"/>
   <g id="line2d_46">
    <path clip-path="url(#p0e5ab228bb)" d="M 65.154516 94.685169 
" style="fill:none;stroke:#000000;stroke-linecap:round;stroke-width:2;"/>
   </g>
   <g id="line2d_47">
    <path clip-path="url(#p0e5ab228bb)" d="M 46.645411 91.686857 
L 58.984814 91.686857 
" style="fill:none;stroke:#000000;stroke-linecap:round;stroke-width:2;"/>
   </g>
   <g id="line2d_48">
    <path clip-path="url(#p0e5ab228bb)" d="M 62.069665 91.218102 
L 74.409068 91.218102 
" style="fill:none;stroke:#000000;stroke-linecap:round;stroke-width:2;"/>
   </g>
   <g id="line2d_49">
    <path clip-path="url(#p0e5ab228bb)" d="M 77.493918 106.05605 
L 89.833321 106.05605 
" style="fill:none;stroke:#000000;stroke-linecap:round;stroke-width:2;"/>
   </g>
   <g id="line2d_50">
    <path clip-path="url(#p0e5ab228bb)" d="M 92.918172 113.066321 
L 105.257575 113.066321 
" style="fill:none;stroke:#000000;stroke-linecap:round;stroke-width:2;"/>
   </g>
   <g id="patch_6">
    <path d="M 45.102986 134.937899 
L 45.102986 83.788949 
" style="fill:none;stroke:#262626;stroke-linecap:square;stroke-linejoin:miter;stroke-width:0.6;"/>
   </g>
   <g id="patch_7">
    <path d="M 45.102986 134.937899 
L 106.8 134.937899 
" style="fill:none;stroke:#262626;stroke-linecap:square;stroke-linejoin:miter;stroke-width:0.6;"/>
   </g>
   <g id="PathCollection_9">
    <defs>
     <path d="M 0 1.75 
C 0.464105 1.75 0.909265 1.565609 1.237437 1.237437 
C 1.565609 0.909265 1.75 0.464105 1.75 0 
C 1.75 -0.464105 1.565609 -0.909265 1.237437 -1.237437 
C 0.909265 -1.565609 0.464105 -1.75 0 -1.75 
C -0.464105 -1.75 -0.909265 -1.565609 -1.237437 -1.237437 
C -1.565609 -0.909265 -1.75 -0.464105 -1.75 0 
C -1.75 0.464105 -1.565609 0.909265 -1.237437 1.237437 
C -0.909265 1.565609 -0.464105 1.75 0 1.75 
z
" id="C4_0_4dece5bd3d"/>
    </defs>
    <g clip-path="url(#p0e5ab228bb)">
     <use style="fill:#ff7f0e;" x="52.815113" xlink:href="#C4_0_4dece5bd3d" y="92.814591"/>
    </g>
    <g clip-path="url(#p0e5ab228bb)">
     <use style="fill:#ff7f0e;" x="52.815113" xlink:href="#C4_0_4dece5bd3d" y="91.865567"/>
    </g>
    <g clip-path="url(#p0e5ab228bb)">
     <use style="fill:#ff7f0e;" x="52.815113" xlink:href="#C4_0_4dece5bd3d" y="90.483185"/>
    </g>
   </g>
   <g id="PathCollection_10">
    <defs>
     <path d="M 0 1.75 
C 0.464105 1.75 0.909265 1.565609 1.237437 1.237437 
C 1.565609 0.909265 1.75 0.464105 1.75 0 
C 1.75 -0.464105 1.565609 -0.909265 1.237437 -1.237437 
C 0.909265 -1.565609 0.464105 -1.75 0 -1.75 
C -0.464105 -1.75 -0.909265 -1.565609 -1.237437 -1.237437 
C -1.565609 -0.909265 -1.75 -0.464105 -1.75 0 
C -1.75 0.464105 -1.565609 0.909265 -1.237437 1.237437 
C -0.909265 1.565609 -0.464105 1.75 0 1.75 
z
" id="C5_0_b91f352820"/>
    </defs>
    <g clip-path="url(#p0e5ab228bb)">
     <use style="fill:#ff7f0e;" x="68.239366" xlink:href="#C5_0_b91f352820" y="91.99011"/>
    </g>
    <g clip-path="url(#p0e5ab228bb)">
     <use style="fill:#ff7f0e;" x="66.765317" xlink:href="#C5_0_b91f352820" y="91.258568"/>
    </g>
    <g clip-path="url(#p0e5ab228bb)">
     <use style="fill:#ff7f0e;" x="68.239366" xlink:href="#C5_0_b91f352820" y="90.449834"/>
    </g>
   </g>
   <g id="PathCollection_11">
    <defs>
     <path d="M 0 1.75 
C 0.464105 1.75 0.909265 1.565609 1.237437 1.237437 
C 1.565609 0.909265 1.75 0.464105 1.75 0 
C 1.75 -0.464105 1.565609 -0.909265 1.237437 -1.237437 
C 0.909265 -1.565609 0.464105 -1.75 0 -1.75 
C -0.464105 -1.75 -0.909265 -1.565609 -1.237437 -1.237437 
C -1.565609 -0.909265 -1.75 -0.464105 -1.75 0 
C -1.75 0.464105 -1.565609 0.909265 -1.237437 1.237437 
C -0.909265 1.565609 -0.464105 1.75 0 1.75 
z
" id="C6_0_175c7dc1a0"/>
    </defs>
    <g clip-path="url(#p0e5ab228bb)">
     <use style="fill:#ff7f0e;" x="83.66362" xlink:href="#C6_0_175c7dc1a0" y="106.633391"/>
    </g>
    <g clip-path="url(#p0e5ab228bb)">
     <use style="fill:#ff7f0e;" x="80.970263" xlink:href="#C6_0_175c7dc1a0" y="105.79009"/>
    </g>
    <g clip-path="url(#p0e5ab228bb)">
     <use style="fill:#ff7f0e;" x="86.345489" xlink:href="#C6_0_175c7dc1a0" y="105.76277"/>
    </g>
   </g>
   <g id="PathCollection_12">
    <defs>
     <path d="M 0 1.75 
C 0.464105 1.75 0.909265 1.565609 1.237437 1.237437 
C 1.565609 0.909265 1.75 0.464105 1.75 0 
C 1.75 -0.464105 1.565609 -0.909265 1.237437 -1.237437 
C 0.909265 -1.565609 0.464105 -1.75 0 -1.75 
C -0.464105 -1.75 -0.909265 -1.565609 -1.237437 -1.237437 
C -1.565609 -0.909265 -1.75 -0.464105 -1.75 0 
C -1.75 0.464105 -1.565609 0.909265 -1.237437 1.237437 
C -0.909265 1.565609 -0.464105 1.75 0 1.75 
z
" id="C7_0_f16bf2774c"/>
    </defs>
    <g clip-path="url(#p0e5ab228bb)">
     <use style="fill:#ff7f0e;" x="99.087873" xlink:href="#C7_0_f16bf2774c" y="113.478158"/>
    </g>
    <g clip-path="url(#p0e5ab228bb)">
     <use style="fill:#ff7f0e;" x="96.249227" xlink:href="#C7_0_f16bf2774c" y="112.996871"/>
    </g>
    <g clip-path="url(#p0e5ab228bb)">
     <use style="fill:#ff7f0e;" x="101.900144" xlink:href="#C7_0_f16bf2774c" y="112.734491"/>
    </g>
   </g>
  </g>
  <g id="text_11">
   <text style="fill:#262626;font-family:Arial;font-size:9.6px;font-style:normal;font-weight:normal;text-anchor:middle;" transform="rotate(-0, 60.48, 10.9035)" x="60.48" y="10.9035">CA09</text>
  </g>
 </g>
 <defs>
  <clipPath id="p0445c5f116">
   <rect height="51.148949" width="61.697014" x="45.102986" y="14.88"/>
  </clipPath>
  <clipPath id="p0e5ab228bb">
   <rect height="51.148949" width="61.697014" x="45.102986" y="83.788949"/>
  </clipPath>
 </defs>
</svg>
