<?xml version="1.0" encoding="utf-8" standalone="no"?>
<!DOCTYPE svg PUBLIC "-//W3C//DTD SVG 1.1//EN"
  "http://www.w3.org/Graphics/SVG/1.1/DTD/svg11.dtd">
<!-- Created with matplotlib (http://matplotlib.org/) -->
<svg height="144pt" version="1.1" viewBox="0 0 360 144" width="360pt" xmlns="http://www.w3.org/2000/svg" xmlns:xlink="http://www.w3.org/1999/xlink">
 <defs>
  <style type="text/css">
*{stroke-linecap:butt;stroke-linejoin:round;}
  </style>
 </defs>
 <g id="figure_1">
  <g id="patch_1">
   <path d="M 0 144 
L 360 144 
L 360 0 
L 0 0 
z
" style="fill:#ffffff;"/>
  </g>
  <g id="axes_1">
   <g id="patch_2">
    <path d="M 85.66 104.34625 
L 180 104.34625 
L 180 18.16 
L 85.66 18.16 
z
" style="fill:#ffffff;"/>
   </g>
   <g id="matplotlib.axis_1">
    <g id="xtick_1">
     <g id="line2d_1">
      <defs>
       <path d="M 0 0 
L 0 2.5 
" id="m6f46cc2ab8" style="stroke:#262626;stroke-width:0.6;"/>
      </defs>
      <g>
       <use style="fill:#262626;stroke:#262626;stroke-width:0.6;" x="85.66" xlink:href="#m6f46cc2ab8" y="104.34625"/>
      </g>
     </g>
     <g id="text_1">
      <text style="fill:#262626;font-family:Arial;font-size:6px;font-style:normal;font-weight:normal;text-anchor:middle;" transform="rotate(-0, 85.66, 116.740938)" x="85.66" y="116.740938">0</text>
     </g>
    </g>
    <g id="xtick_2">
     <g id="line2d_2">
      <g>
       <use style="fill:#262626;stroke:#262626;stroke-width:0.6;" x="108.121905" xlink:href="#m6f46cc2ab8" y="104.34625"/>
      </g>
     </g>
     <g id="text_2">
      <text style="fill:#262626;font-family:Arial;font-size:6px;font-style:normal;font-weight:normal;text-anchor:middle;" transform="rotate(-0, 108.121905, 116.740938)" x="108.121905" y="116.740938">25</text>
     </g>
    </g>
    <g id="xtick_3">
     <g id="line2d_3">
      <g>
       <use style="fill:#262626;stroke:#262626;stroke-width:0.6;" x="130.58381" xlink:href="#m6f46cc2ab8" y="104.34625"/>
      </g>
     </g>
     <g id="text_3">
      <text style="fill:#262626;font-family:Arial;font-size:6px;font-style:normal;font-weight:normal;text-anchor:middle;" transform="rotate(-0, 130.58381, 116.740938)" x="130.58381" y="116.740938">50</text>
     </g>
    </g>
    <g id="xtick_4">
     <g id="line2d_4">
      <g>
       <use style="fill:#262626;stroke:#262626;stroke-width:0.6;" x="153.045714" xlink:href="#m6f46cc2ab8" y="104.34625"/>
      </g>
     </g>
     <g id="text_4">
      <text style="fill:#262626;font-family:Arial;font-size:6px;font-style:normal;font-weight:normal;text-anchor:middle;" transform="rotate(-0, 153.045714, 116.740938)" x="153.045714" y="116.740938">75</text>
     </g>
    </g>
    <g id="xtick_5">
     <g id="line2d_5">
      <g>
       <use style="fill:#262626;stroke:#262626;stroke-width:0.6;" x="175.507619" xlink:href="#m6f46cc2ab8" y="104.34625"/>
      </g>
     </g>
     <g id="text_5">
      <text style="fill:#262626;font-family:Arial;font-size:6px;font-style:normal;font-weight:normal;text-anchor:middle;" transform="rotate(-0, 175.507619, 116.740938)" x="175.507619" y="116.740938">100</text>
     </g>
    </g>
    <g id="text_6">
     <text style="fill:#262626;font-family:Arial;font-size:8.8px;font-style:normal;font-weight:normal;text-anchor:middle;" transform="rotate(-0, 132.83, 128.339562)" x="132.83" y="128.339562">NA43 proportion (%)</text>
    </g>
   </g>
   <g id="matplotlib.axis_2">
    <g id="ytick_1">
     <g id="line2d_6">
      <defs>
       <path d="M 0 0 
L -2.5 0 
" id="m023ed60682" style="stroke:#262626;stroke-width:0.6;"/>
      </defs>
      <g>
       <use style="fill:#262626;stroke:#262626;stroke-width:0.6;" x="85.66" xlink:href="#m023ed60682" y="92.181205"/>
      </g>
     </g>
     <g id="text_7">
      <text style="fill:#262626;font-family:Arial;font-size:9px;font-style:normal;font-weight:normal;text-anchor:end;" transform="rotate(-0, 77.56, 95.402221)" x="77.56" y="95.402221">avian</text>
     </g>
    </g>
    <g id="ytick_2">
     <g id="line2d_7">
      <g>
       <use style="fill:#262626;stroke:#262626;stroke-width:0.6;" x="85.66" xlink:href="#m023ed60682" y="71.562485"/>
      </g>
     </g>
     <g id="text_8">
      <text style="fill:#262626;font-family:Arial;font-size:9px;font-style:normal;font-weight:normal;text-anchor:end;" transform="rotate(-0, 77.56, 74.783501)" x="77.56" y="74.783501">swine</text>
     </g>
    </g>
    <g id="ytick_3">
     <g id="line2d_8">
      <g>
       <use style="fill:#262626;stroke:#262626;stroke-width:0.6;" x="85.66" xlink:href="#m023ed60682" y="50.943765"/>
      </g>
     </g>
     <g id="text_9">
      <text style="fill:#262626;font-family:Arial;font-size:9px;font-style:normal;font-weight:normal;text-anchor:end;" transform="rotate(-0, 77.56, 54.164781)" x="77.56" y="54.164781">seasonal H1N1</text>
     </g>
    </g>
    <g id="ytick_4">
     <g id="line2d_9">
      <g>
       <use style="fill:#262626;stroke:#262626;stroke-width:0.6;" x="85.66" xlink:href="#m023ed60682" y="30.325045"/>
      </g>
     </g>
     <g id="text_10">
      <text style="fill:#262626;font-family:Arial;font-size:9px;font-style:normal;font-weight:normal;text-anchor:end;" transform="rotate(-0, 77.56, 33.55942)" x="77.56" y="33.55942">pdmH1N1</text>
     </g>
    </g>
   </g>
   <g id="patch_3">
    <path clip-path="url(#pe1076a202b)" d="M 85.66 100.428693 
L 175.507619 100.428693 
L 175.507619 83.933717 
L 85.66 83.933717 
z
" style="fill:#009e73;"/>
   </g>
   <g id="patch_4">
    <path clip-path="url(#pe1076a202b)" d="M 85.66 79.809973 
L 175.507619 79.809973 
L 175.507619 63.314997 
L 85.66 63.314997 
z
" style="fill:#009e73;"/>
   </g>
   <g id="patch_5">
    <path clip-path="url(#pe1076a202b)" d="M 85.66 59.191253 
L 175.507619 59.191253 
L 175.507619 42.696277 
L 85.66 42.696277 
z
" style="fill:#009e73;"/>
   </g>
   <g id="patch_6">
    <path clip-path="url(#pe1076a202b)" d="M 85.66 38.572533 
L 175.507619 38.572533 
L 175.507619 22.077557 
L 85.66 22.077557 
z
" style="fill:#009e73;"/>
   </g>
   <g id="patch_7">
    <path clip-path="url(#pe1076a202b)" d="M 85.66 100.428693 
L 88.537473 100.428693 
L 88.537473 83.933717 
L 85.66 83.933717 
z
" style="fill:#cc79a7;"/>
   </g>
   <g id="patch_8">
    <path clip-path="url(#pe1076a202b)" d="M 85.66 79.809973 
L 112.958484 79.809973 
L 112.958484 63.314997 
L 85.66 63.314997 
z
" style="fill:#cc79a7;"/>
   </g>
   <g id="patch_9">
    <path clip-path="url(#pe1076a202b)" d="M 85.66 59.191253 
L 121.832418 59.191253 
L 121.832418 42.696277 
L 85.66 42.696277 
z
" style="fill:#cc79a7;"/>
   </g>
   <g id="patch_10">
    <path clip-path="url(#pe1076a202b)" d="M 85.66 38.572533 
L 88.652752 38.572533 
L 88.652752 22.077557 
L 85.66 22.077557 
z
" style="fill:#cc79a7;"/>
   </g>
   <g id="patch_11">
    <path clip-path="url(#pe1076a202b)" d="M 85.66 100.428693 
L 85.894896 100.428693 
L 85.894896 83.933717 
L 85.66 83.933717 
z
" style="fill:#999999;"/>
   </g>
   <g id="patch_12">
    <path clip-path="url(#pe1076a202b)" d="M 85.66 79.809973 
L 90.288873 79.809973 
L 90.288873 63.314997 
L 85.66 63.314997 
z
" style="fill:#999999;"/>
   </g>
   <g id="patch_13">
    <path clip-path="url(#pe1076a202b)" d="M 85.66 59.191253 
L 85.66 59.191253 
L 85.66 42.696277 
L 85.66 42.696277 
z
" style="fill:#999999;"/>
   </g>
   <g id="patch_14">
    <path clip-path="url(#pe1076a202b)" d="M 85.66 38.572533 
L 85.66 38.572533 
L 85.66 22.077557 
L 85.66 22.077557 
z
" style="fill:#999999;"/>
   </g>
   <g id="patch_15">
    <path d="M 85.66 104.34625 
L 85.66 18.16 
" style="fill:none;stroke:#262626;stroke-linecap:square;stroke-linejoin:miter;stroke-width:0.6;"/>
   </g>
   <g id="patch_16">
    <path d="M 85.66 104.34625 
L 180 104.34625 
" style="fill:none;stroke:#262626;stroke-linecap:square;stroke-linejoin:miter;stroke-width:0.6;"/>
   </g>
   <g id="legend_1">
    <g id="patch_17">
     <path d="M 187.2 51.909375 
L 203.2 51.909375 
L 203.2 46.309375 
L 187.2 46.309375 
z
" style="fill:#009e73;"/>
    </g>
    <g id="text_11">
     <text style="fill:#262626;font-family:Arial;font-size:8px;font-style:normal;font-weight:normal;text-anchor:start;" transform="rotate(-0, 209.6, 51.909375)" x="209.6" y="51.909375">AUG</text>
    </g>
    <g id="patch_18">
     <path d="M 187.2 63.323125 
L 203.2 63.323125 
L 203.2 57.723125 
L 187.2 57.723125 
z
" style="fill:#cc79a7;"/>
    </g>
    <g id="text_12">
     <text style="fill:#262626;font-family:Arial;font-size:8px;font-style:normal;font-weight:normal;text-anchor:start;" transform="rotate(-0, 209.6, 63.323125)" x="209.6" y="63.323125">near cognate AUG</text>
    </g>
    <g id="patch_19">
     <path d="M 187.2 74.733125 
L 203.2 74.733125 
L 203.2 69.133125 
L 187.2 69.133125 
z
" style="fill:#999999;"/>
    </g>
    <g id="text_13">
     <text style="fill:#262626;font-family:Arial;font-size:8px;font-style:normal;font-weight:normal;text-anchor:start;" transform="rotate(-0, 209.6, 74.733125)" x="209.6" y="74.733125">other</text>
    </g>
   </g>
  </g>
 </g>
 <defs>
  <clipPath id="pe1076a202b">
   <rect height="86.18625" width="94.34" x="85.66" y="18.16"/>
  </clipPath>
 </defs>
</svg>
