<?xml version="1.0" encoding="utf-8" standalone="no"?>
<!DOCTYPE svg PUBLIC "-//W3C//DTD SVG 1.1//EN"
  "http://www.w3.org/Graphics/SVG/1.1/DTD/svg11.dtd">
<!-- Created with matplotlib (http://matplotlib.org/) -->
<svg height="201pt" version="1.1" viewBox="0 0 141 201" width="141pt" xmlns="http://www.w3.org/2000/svg" xmlns:xlink="http://www.w3.org/1999/xlink">
 <defs>
  <style type="text/css">
*{stroke-linecap:butt;stroke-linejoin:round;}
  </style>
 </defs>
 <g id="figure_1">
  <g id="patch_1">
   <path d="M 0 201.6 
L 141.12 201.6 
L 141.12 0 
L 0 0 
z
" style="fill:#ffffff;"/>
  </g>
  <g id="axes_1">
   <g id="patch_2">
    <path d="M 45.102986 66.028949 
L 126.96 66.028949 
L 126.96 14.88 
L 45.102986 14.88 
z
" style="fill:#ffffff;"/>
   </g>
   <g id="matplotlib.axis_1">
    <g id="xtick_1">
     <g id="line2d_1">
      <defs>
       <path d="M 0 0 
L 0 2.5 
" id="mf8b4f6128b" style="stroke:#262626;stroke-width:0.6;"/>
      </defs>
      <g>
       <use style="fill:#262626;stroke:#262626;stroke-width:0.6;" x="51.924404" xlink:href="#mf8b4f6128b" y="66.028949"/>
      </g>
     </g>
    </g>
    <g id="xtick_2">
     <g id="line2d_2">
      <g>
       <use style="fill:#262626;stroke:#262626;stroke-width:0.6;" x="65.567239" xlink:href="#mf8b4f6128b" y="66.028949"/>
      </g>
     </g>
    </g>
    <g id="xtick_3">
     <g id="line2d_3">
      <g>
       <use style="fill:#262626;stroke:#262626;stroke-width:0.6;" x="79.210075" xlink:href="#mf8b4f6128b" y="66.028949"/>
      </g>
     </g>
    </g>
    <g id="xtick_4">
     <g id="line2d_4">
      <g>
       <use style="fill:#262626;stroke:#262626;stroke-width:0.6;" x="92.852911" xlink:href="#mf8b4f6128b" y="66.028949"/>
      </g>
     </g>
    </g>
    <g id="xtick_5">
     <g id="line2d_5">
      <g>
       <use style="fill:#262626;stroke:#262626;stroke-width:0.6;" x="106.495746" xlink:href="#mf8b4f6128b" y="66.028949"/>
      </g>
     </g>
    </g>
    <g id="xtick_6">
     <g id="line2d_6">
      <g>
       <use style="fill:#262626;stroke:#262626;stroke-width:0.6;" x="120.138582" xlink:href="#mf8b4f6128b" y="66.028949"/>
      </g>
     </g>
    </g>
   </g>
   <g id="matplotlib.axis_2">
    <g id="ytick_1">
     <g id="line2d_7">
      <defs>
       <path d="M 0 0 
L -4 0 
" id="maf43191218" style="stroke:#262626;"/>
      </defs>
      <g>
       <use style="fill:#262626;stroke:#262626;" x="45.102986" xlink:href="#maf43191218" y="53.717034"/>
      </g>
     </g>
     <g id="text_1">
      <!-- $\mathdefault{10^{-1}}$ -->
      <g style="fill:#262626;" transform="translate(23.622986 56.810784)">
       <text>
        <tspan style="font-family:Arial;font-size:6px;font-style:regular;font-weight:regular;" x="0 3.336914" y="-0.799625">10</tspan>
        <tspan style="font-family:Arial;font-size:4.2px;font-style:regular;font-weight:regular;" x="6.778369 9.231103" y="-4.98125">−1</tspan>
       </text>
      </g>
     </g>
    </g>
    <g id="ytick_2">
     <g id="line2d_8">
      <g>
       <use style="fill:#262626;stroke:#262626;" x="45.102986" xlink:href="#maf43191218" y="22.777908"/>
      </g>
     </g>
     <g id="text_2">
      <!-- $\mathdefault{10^{0}}$ -->
      <g style="fill:#262626;" transform="translate(26.082986 25.871658)">
       <text>
        <tspan style="font-family:Arial;font-size:6px;font-style:regular;font-weight:regular;" x="0 3.336914" y="-0.799625">10</tspan>
        <tspan style="font-family:Arial;font-size:4.2px;font-style:regular;font-weight:regular;" x="6.778369" y="-4.98125">0</tspan>
       </text>
      </g>
     </g>
    </g>
    <g id="ytick_3">
     <g id="line2d_9">
      <defs>
       <path d="M 0 0 
L -2.5 0 
" id="m2b792fbc7e" style="stroke:#262626;stroke-width:0.4;"/>
      </defs>
      <g>
       <use style="fill:#262626;stroke:#262626;stroke-width:0.4;" x="45.102986" xlink:href="#m2b792fbc7e" y="66.028949"/>
      </g>
     </g>
    </g>
    <g id="ytick_4">
     <g id="line2d_10">
      <g>
       <use style="fill:#262626;stroke:#262626;stroke-width:0.4;" x="45.102986" xlink:href="#m2b792fbc7e" y="63.030638"/>
      </g>
     </g>
    </g>
    <g id="ytick_5">
     <g id="line2d_11">
      <g>
       <use style="fill:#262626;stroke:#262626;stroke-width:0.4;" x="45.102986" xlink:href="#m2b792fbc7e" y="60.58084"/>
      </g>
     </g>
    </g>
    <g id="ytick_6">
     <g id="line2d_12">
      <g>
       <use style="fill:#262626;stroke:#262626;stroke-width:0.4;" x="45.102986" xlink:href="#m2b792fbc7e" y="58.509565"/>
      </g>
     </g>
    </g>
    <g id="ytick_7">
     <g id="line2d_13">
      <g>
       <use style="fill:#262626;stroke:#262626;stroke-width:0.4;" x="45.102986" xlink:href="#m2b792fbc7e" y="56.715345"/>
      </g>
     </g>
    </g>
    <g id="ytick_8">
     <g id="line2d_14">
      <g>
       <use style="fill:#262626;stroke:#262626;stroke-width:0.4;" x="45.102986" xlink:href="#m2b792fbc7e" y="55.13273"/>
      </g>
     </g>
    </g>
    <g id="ytick_9">
     <g id="line2d_15">
      <g>
       <use style="fill:#262626;stroke:#262626;stroke-width:0.4;" x="45.102986" xlink:href="#m2b792fbc7e" y="44.403429"/>
      </g>
     </g>
    </g>
    <g id="ytick_10">
     <g id="line2d_16">
      <g>
       <use style="fill:#262626;stroke:#262626;stroke-width:0.4;" x="45.102986" xlink:href="#m2b792fbc7e" y="38.955319"/>
      </g>
     </g>
    </g>
    <g id="ytick_11">
     <g id="line2d_17">
      <g>
       <use style="fill:#262626;stroke:#262626;stroke-width:0.4;" x="45.102986" xlink:href="#m2b792fbc7e" y="35.089824"/>
      </g>
     </g>
    </g>
    <g id="ytick_12">
     <g id="line2d_18">
      <g>
       <use style="fill:#262626;stroke:#262626;stroke-width:0.4;" x="45.102986" xlink:href="#m2b792fbc7e" y="32.091513"/>
      </g>
     </g>
    </g>
    <g id="ytick_13">
     <g id="line2d_19">
      <g>
       <use style="fill:#262626;stroke:#262626;stroke-width:0.4;" x="45.102986" xlink:href="#m2b792fbc7e" y="29.641714"/>
      </g>
     </g>
    </g>
    <g id="ytick_14">
     <g id="line2d_20">
      <g>
       <use style="fill:#262626;stroke:#262626;stroke-width:0.4;" x="45.102986" xlink:href="#m2b792fbc7e" y="27.570439"/>
      </g>
     </g>
    </g>
    <g id="ytick_15">
     <g id="line2d_21">
      <g>
       <use style="fill:#262626;stroke:#262626;stroke-width:0.4;" x="45.102986" xlink:href="#m2b792fbc7e" y="25.776219"/>
      </g>
     </g>
    </g>
    <g id="ytick_16">
     <g id="line2d_22">
      <g>
       <use style="fill:#262626;stroke:#262626;stroke-width:0.4;" x="45.102986" xlink:href="#m2b792fbc7e" y="24.193605"/>
      </g>
     </g>
    </g>
    <g id="text_3">
     <text style="fill:#262626;font-family:Arial;font-size:8.8px;font-style:normal;font-weight:normal;text-anchor:middle;" transform="rotate(-90, 17.873986, 40.454475)" x="17.873986" y="40.454475">NA expression</text>
    </g>
   </g>
   <g id="PathCollection_1"/>
   <g id="PathCollection_2"/>
   <g id="line2d_23">
    <path clip-path="url(#pf3935fdf7c)" d="M 62.838672 25.776219 
" style="fill:none;stroke:#000000;stroke-linecap:round;stroke-width:2;"/>
   </g>
   <g id="line2d_24">
    <path clip-path="url(#pf3935fdf7c)" d="M 46.46727 22.777908 
L 57.381538 22.777908 
" style="fill:none;stroke:#000000;stroke-linecap:round;stroke-width:2;"/>
   </g>
   <g id="line2d_25">
    <path clip-path="url(#pf3935fdf7c)" d="M 60.110105 16.989645 
L 71.024374 16.989645 
" style="fill:none;stroke:#000000;stroke-linecap:round;stroke-width:2;"/>
   </g>
   <g id="line2d_26">
    <path clip-path="url(#pf3935fdf7c)" d="M 73.752941 21.152248 
L 84.667209 21.152248 
" style="fill:none;stroke:#000000;stroke-linecap:round;stroke-width:2;"/>
   </g>
   <g id="line2d_27">
    <path clip-path="url(#pf3935fdf7c)" d="M 87.395777 42.059134 
L 98.310045 42.059134 
" style="fill:none;stroke:#000000;stroke-linecap:round;stroke-width:2;"/>
   </g>
   <g id="line2d_28">
    <path clip-path="url(#pf3935fdf7c)" d="M 101.038612 59.393867 
L 111.952881 59.393867 
" style="fill:none;stroke:#000000;stroke-linecap:round;stroke-width:2;"/>
   </g>
   <g id="line2d_29">
    <path clip-path="url(#pf3935fdf7c)" d="M 114.681448 59.793033 
L 125.595716 59.793033 
" style="fill:none;stroke:#000000;stroke-linecap:round;stroke-width:2;"/>
   </g>
   <g id="patch_3">
    <path d="M 45.102986 66.028949 
L 45.102986 14.88 
" style="fill:none;stroke:#262626;stroke-linecap:square;stroke-linejoin:miter;stroke-width:0.6;"/>
   </g>
   <g id="patch_4">
    <path d="M 45.102986 66.028949 
L 126.96 66.028949 
" style="fill:none;stroke:#262626;stroke-linecap:square;stroke-linejoin:miter;stroke-width:0.6;"/>
   </g>
   <g id="PathCollection_3">
    <defs>
     <path d="M 0 1.75 
C 0.464105 1.75 0.909265 1.565609 1.237437 1.237437 
C 1.565609 0.909265 1.75 0.464105 1.75 0 
C 1.75 -0.464105 1.565609 -0.909265 1.237437 -1.237437 
C 0.909265 -1.565609 0.464105 -1.75 0 -1.75 
C -0.464105 -1.75 -0.909265 -1.565609 -1.237437 -1.237437 
C -1.565609 -0.909265 -1.75 -0.464105 -1.75 0 
C -1.75 0.464105 -1.565609 0.909265 -1.237437 1.237437 
C -0.909265 1.565609 -0.464105 1.75 0 1.75 
z
" id="C0_0_d5624ee873"/>
    </defs>
    <g clip-path="url(#pf3935fdf7c)">
     <use style="fill:#1f77b4;" x="51.924404" xlink:href="#C0_0_d5624ee873" y="23.300948"/>
    </g>
    <g clip-path="url(#pf3935fdf7c)">
     <use style="fill:#1f77b4;" x="49.073209" xlink:href="#C0_0_d5624ee873" y="22.860084"/>
    </g>
    <g clip-path="url(#pf3935fdf7c)">
     <use style="fill:#1f77b4;" x="51.924404" xlink:href="#C0_0_d5624ee873" y="22.195785"/>
    </g>
   </g>
   <g id="PathCollection_4">
    <defs>
     <path d="M 0 1.75 
C 0.464105 1.75 0.909265 1.565609 1.237437 1.237437 
C 1.565609 0.909265 1.75 0.464105 1.75 0 
C 1.75 -0.464105 1.565609 -0.909265 1.237437 -1.237437 
C 0.909265 -1.565609 0.464105 -1.75 0 -1.75 
C -0.464105 -1.75 -0.909265 -1.565609 -1.237437 -1.237437 
C -1.565609 -0.909265 -1.75 -0.464105 -1.75 0 
C -1.75 0.464105 -1.565609 0.909265 -1.237437 1.237437 
C -0.909265 1.565609 -0.464105 1.75 0 1.75 
z
" id="C1_0_783da15442"/>
    </defs>
    <g clip-path="url(#pf3935fdf7c)">
     <use style="fill:#1f77b4;" x="65.567239" xlink:href="#C1_0_783da15442" y="17.749011"/>
    </g>
    <g clip-path="url(#pf3935fdf7c)">
     <use style="fill:#1f77b4;" x="65.567239" xlink:href="#C1_0_783da15442" y="16.270909"/>
    </g>
   </g>
   <g id="PathCollection_5">
    <defs>
     <path d="M 0 1.75 
C 0.464105 1.75 0.909265 1.565609 1.237437 1.237437 
C 1.565609 0.909265 1.75 0.464105 1.75 0 
C 1.75 -0.464105 1.565609 -0.909265 1.237437 -1.237437 
C 0.909265 -1.565609 0.464105 -1.75 0 -1.75 
C -0.464105 -1.75 -0.909265 -1.565609 -1.237437 -1.237437 
C -1.565609 -0.909265 -1.75 -0.464105 -1.75 0 
C -1.75 0.464105 -1.565609 0.909265 -1.237437 1.237437 
C -0.909265 1.565609 -0.464105 1.75 0 1.75 
z
" id="C2_0_01d11c4042"/>
    </defs>
    <g clip-path="url(#pf3935fdf7c)">
     <use style="fill:#1f77b4;" x="79.210075" xlink:href="#C2_0_01d11c4042" y="22.039066"/>
    </g>
    <g clip-path="url(#pf3935fdf7c)">
     <use style="fill:#1f77b4;" x="76.158554" xlink:href="#C2_0_01d11c4042" y="21.855528"/>
    </g>
    <g clip-path="url(#pf3935fdf7c)">
     <use style="fill:#1f77b4;" x="79.210075" xlink:href="#C2_0_01d11c4042" y="19.691255"/>
    </g>
   </g>
   <g id="PathCollection_6">
    <defs>
     <path d="M 0 1.75 
C 0.464105 1.75 0.909265 1.565609 1.237437 1.237437 
C 1.565609 0.909265 1.75 0.464105 1.75 0 
C 1.75 -0.464105 1.565609 -0.909265 1.237437 -1.237437 
C 0.909265 -1.565609 0.464105 -1.75 0 -1.75 
C -0.464105 -1.75 -0.909265 -1.565609 -1.237437 -1.237437 
C -1.565609 -0.909265 -1.75 -0.464105 -1.75 0 
C -1.75 0.464105 -1.565609 0.909265 -1.237437 1.237437 
C -0.909265 1.565609 -0.464105 1.75 0 1.75 
z
" id="C3_0_a09400b6b9"/>
    </defs>
    <g clip-path="url(#pf3935fdf7c)">
     <use style="fill:#1f77b4;" x="92.852911" xlink:href="#C3_0_a09400b6b9" y="42.811868"/>
    </g>
    <g clip-path="url(#pf3935fdf7c)">
     <use style="fill:#1f77b4;" x="89.792433" xlink:href="#C3_0_a09400b6b9" y="42.048421"/>
    </g>
    <g clip-path="url(#pf3935fdf7c)">
     <use style="fill:#1f77b4;" x="95.795374" xlink:href="#C3_0_a09400b6b9" y="41.35651"/>
    </g>
   </g>
   <g id="PathCollection_7">
    <defs>
     <path d="M 0 1.75 
C 0.464105 1.75 0.909265 1.565609 1.237437 1.237437 
C 1.565609 0.909265 1.75 0.464105 1.75 0 
C 1.75 -0.464105 1.565609 -0.909265 1.237437 -1.237437 
C 0.909265 -1.565609 0.464105 -1.75 0 -1.75 
C -0.464105 -1.75 -0.909265 -1.565609 -1.237437 -1.237437 
C -1.565609 -0.909265 -1.75 -0.464105 -1.75 0 
C -1.75 0.464105 -1.565609 0.909265 -1.237437 1.237437 
C -0.909265 1.565609 -0.464105 1.75 0 1.75 
z
" id="C4_0_7aa5be9108"/>
    </defs>
    <g clip-path="url(#pf3935fdf7c)">
     <use style="fill:#1f77b4;" x="106.495746" xlink:href="#C4_0_7aa5be9108" y="59.641457"/>
    </g>
    <g clip-path="url(#pf3935fdf7c)">
     <use style="fill:#1f77b4;" x="103.395259" xlink:href="#C4_0_7aa5be9108" y="59.300734"/>
    </g>
    <g clip-path="url(#pf3935fdf7c)">
     <use style="fill:#1f77b4;" x="109.595996" xlink:href="#C4_0_7aa5be9108" y="59.242852"/>
    </g>
   </g>
   <g id="PathCollection_8">
    <defs>
     <path d="M 0 1.75 
C 0.464105 1.75 0.909265 1.565609 1.237437 1.237437 
C 1.565609 0.909265 1.75 0.464105 1.75 0 
C 1.75 -0.464105 1.565609 -0.909265 1.237437 -1.237437 
C 0.909265 -1.565609 0.464105 -1.75 0 -1.75 
C -0.464105 -1.75 -0.909265 -1.565609 -1.237437 -1.237437 
C -1.565609 -0.909265 -1.75 -0.464105 -1.75 0 
C -1.75 0.464105 -1.565609 0.909265 -1.237437 1.237437 
C -0.909265 1.565609 -0.464105 1.75 0 1.75 
z
" id="C5_0_dcc9fa6826"/>
    </defs>
    <g clip-path="url(#pf3935fdf7c)">
     <use style="fill:#1f77b4;" x="120.138582" xlink:href="#C5_0_dcc9fa6826" y="60.089106"/>
    </g>
    <g clip-path="url(#pf3935fdf7c)">
     <use style="fill:#1f77b4;" x="117.03755" xlink:href="#C5_0_dcc9fa6826" y="59.954456"/>
    </g>
    <g clip-path="url(#pf3935fdf7c)">
     <use style="fill:#1f77b4;" x="123.236796" xlink:href="#C5_0_dcc9fa6826" y="59.34722"/>
    </g>
   </g>
  </g>
  <g id="axes_2">
   <g id="patch_5">
    <path d="M 45.102986 134.937899 
L 126.96 134.937899 
L 126.96 83.788949 
L 45.102986 83.788949 
z
" style="fill:#ffffff;"/>
   </g>
   <g id="matplotlib.axis_3">
    <g id="xtick_7">
     <g id="line2d_30">
      <g>
       <use style="fill:#262626;stroke:#262626;stroke-width:0.6;" x="51.924404" xlink:href="#mf8b4f6128b" y="134.937899"/>
      </g>
     </g>
     <g id="text_4">
      <!-- 1$_{wt}$ 43$_{wt}$ -->
      <g style="fill:#262626;" transform="translate(54.251044 176.517899)rotate(-90)">
       <text>
        <tspan style="font-family:Arial;font-size:9px;font-style:regular;font-weight:regular;" x="0 12.960352 15.46084 20.466211" y="-0.53125">1 43</tspan>
        <tspan style="font-family:DejaVu Sans;font-size:6.3px;font-style:oblique;font-weight:oblique;" x="5.091504 10.244092 25.557715 30.710303" y="0.9453125">wtwt</tspan>
       </text>
      </g>
     </g>
    </g>
    <g id="xtick_8">
     <g id="line2d_31">
      <g>
       <use style="fill:#262626;stroke:#262626;stroke-width:0.6;" x="65.567239" xlink:href="#mf8b4f6128b" y="134.937899"/>
      </g>
     </g>
     <g id="text_5">
      <!-- 1$_{wt}$ 43$_{GUA}$ -->
      <g style="fill:#262626;" transform="translate(67.89388 182.727899)rotate(-90)">
       <text>
        <tspan style="font-family:Arial;font-size:9px;font-style:regular;font-weight:regular;" x="0 12.960352 15.46084 20.466211" y="-0.53125">1 43</tspan>
        <tspan style="font-family:DejaVu Sans;font-size:6.3px;font-style:oblique;font-weight:oblique;" x="5.091504 10.244092 25.557715 30.4396 35.050781" y="0.9453125">wtGUA</tspan>
       </text>
      </g>
     </g>
    </g>
    <g id="xtick_9">
     <g id="line2d_32">
      <g>
       <use style="fill:#262626;stroke:#262626;stroke-width:0.6;" x="79.210075" xlink:href="#mf8b4f6128b" y="134.937899"/>
      </g>
     </g>
     <g id="text_6">
      <!-- 1$_{wt}$ 43$_{UUA}$ -->
      <g style="fill:#262626;" transform="translate(81.536716 182.457899)rotate(-90)">
       <text>
        <tspan style="font-family:Arial;font-size:9px;font-style:regular;font-weight:regular;" x="0 12.960352 15.46084 20.466211" y="-0.53125">1 43</tspan>
        <tspan style="font-family:DejaVu Sans;font-size:6.3px;font-style:oblique;font-weight:oblique;" x="5.091504 10.244092 25.557715 30.168896 34.780078" y="0.9453125">wtUUA</tspan>
       </text>
      </g>
     </g>
    </g>
    <g id="xtick_10">
     <g id="line2d_33">
      <g>
       <use style="fill:#262626;stroke:#262626;stroke-width:0.6;" x="92.852911" xlink:href="#mf8b4f6128b" y="134.937899"/>
      </g>
     </g>
     <g id="text_7">
      <!-- 1$_{GUA}$ 43$_{wt}$ -->
      <g style="fill:#262626;" transform="translate(95.179551 182.727899)rotate(-90)">
       <text>
        <tspan style="font-family:Arial;font-size:9px;font-style:regular;font-weight:regular;" x="0 19.140381 21.640869 26.64624" y="-0.53125">1 43</tspan>
        <tspan style="font-family:DejaVu Sans;font-size:6.3px;font-style:oblique;font-weight:oblique;" x="5.091504 9.973389 14.58457 31.737744 36.890332" y="0.9453125">GUAwt</tspan>
       </text>
      </g>
     </g>
    </g>
    <g id="xtick_11">
     <g id="line2d_34">
      <g>
       <use style="fill:#262626;stroke:#262626;stroke-width:0.6;" x="106.495746" xlink:href="#mf8b4f6128b" y="134.937899"/>
      </g>
     </g>
     <g id="text_8">
      <!-- 1$_{GUA}$ 43$_{GUA}$ -->
      <g style="fill:#262626;" transform="translate(108.822387 188.847899)rotate(-90)">
       <text>
        <tspan style="font-family:Arial;font-size:9px;font-style:regular;font-weight:regular;" x="0 19.140381 21.640869 26.64624" y="-0.53125">1 43</tspan>
        <tspan style="font-family:DejaVu Sans;font-size:6.3px;font-style:oblique;font-weight:oblique;" x="5.091504 9.973389 14.58457 31.737744 36.619629 41.230811" y="0.9453125">GUAGUA</tspan>
       </text>
      </g>
     </g>
    </g>
    <g id="xtick_12">
     <g id="line2d_35">
      <g>
       <use style="fill:#262626;stroke:#262626;stroke-width:0.6;" x="120.138582" xlink:href="#mf8b4f6128b" y="134.937899"/>
      </g>
     </g>
     <g id="text_9">
      <!-- 1$_{GUA}$ 43$_{UUA}$ -->
      <g style="fill:#262626;" transform="translate(122.465223 188.577899)rotate(-90)">
       <text>
        <tspan style="font-family:Arial;font-size:9px;font-style:regular;font-weight:regular;" x="0 19.140381 21.640869 26.64624" y="-0.53125">1 43</tspan>
        <tspan style="font-family:DejaVu Sans;font-size:6.3px;font-style:oblique;font-weight:oblique;" x="5.091504 9.973389 14.58457 31.737744 36.348926 40.960107" y="0.9453125">GUAUUA</tspan>
       </text>
      </g>
     </g>
    </g>
   </g>
   <g id="matplotlib.axis_4">
    <g id="ytick_17">
     <g id="line2d_36">
      <g>
       <use style="fill:#262626;stroke:#262626;" x="45.102986" xlink:href="#maf43191218" y="122.625983"/>
      </g>
     </g>
     <g id="text_10">
      <!-- $\mathdefault{10^{-1}}$ -->
      <g style="fill:#262626;" transform="translate(23.622986 125.719733)">
       <text>
        <tspan style="font-family:Arial;font-size:6px;font-style:regular;font-weight:regular;" x="0 3.336914" y="-0.799625">10</tspan>
        <tspan style="font-family:Arial;font-size:4.2px;font-style:regular;font-weight:regular;" x="6.778369 9.231103" y="-4.98125">−1</tspan>
       </text>
      </g>
     </g>
    </g>
    <g id="ytick_18">
     <g id="line2d_37">
      <g>
       <use style="fill:#262626;stroke:#262626;" x="45.102986" xlink:href="#maf43191218" y="91.686857"/>
      </g>
     </g>
     <g id="text_11">
      <!-- $\mathdefault{10^{0}}$ -->
      <g style="fill:#262626;" transform="translate(26.082986 94.780607)">
       <text>
        <tspan style="font-family:Arial;font-size:6px;font-style:regular;font-weight:regular;" x="0 3.336914" y="-0.799625">10</tspan>
        <tspan style="font-family:Arial;font-size:4.2px;font-style:regular;font-weight:regular;" x="6.778369" y="-4.98125">0</tspan>
       </text>
      </g>
     </g>
    </g>
    <g id="ytick_19">
     <g id="line2d_38">
      <g>
       <use style="fill:#262626;stroke:#262626;stroke-width:0.4;" x="45.102986" xlink:href="#m2b792fbc7e" y="134.937899"/>
      </g>
     </g>
    </g>
    <g id="ytick_20">
     <g id="line2d_39">
      <g>
       <use style="fill:#262626;stroke:#262626;stroke-width:0.4;" x="45.102986" xlink:href="#m2b792fbc7e" y="131.939588"/>
      </g>
     </g>
    </g>
    <g id="ytick_21">
     <g id="line2d_40">
      <g>
       <use style="fill:#262626;stroke:#262626;stroke-width:0.4;" x="45.102986" xlink:href="#m2b792fbc7e" y="129.489789"/>
      </g>
     </g>
    </g>
    <g id="ytick_22">
     <g id="line2d_41">
      <g>
       <use style="fill:#262626;stroke:#262626;stroke-width:0.4;" x="45.102986" xlink:href="#m2b792fbc7e" y="127.418514"/>
      </g>
     </g>
    </g>
    <g id="ytick_23">
     <g id="line2d_42">
      <g>
       <use style="fill:#262626;stroke:#262626;stroke-width:0.4;" x="45.102986" xlink:href="#m2b792fbc7e" y="125.624294"/>
      </g>
     </g>
    </g>
    <g id="ytick_24">
     <g id="line2d_43">
      <g>
       <use style="fill:#262626;stroke:#262626;stroke-width:0.4;" x="45.102986" xlink:href="#m2b792fbc7e" y="124.04168"/>
      </g>
     </g>
    </g>
    <g id="ytick_25">
     <g id="line2d_44">
      <g>
       <use style="fill:#262626;stroke:#262626;stroke-width:0.4;" x="45.102986" xlink:href="#m2b792fbc7e" y="113.312378"/>
      </g>
     </g>
    </g>
    <g id="ytick_26">
     <g id="line2d_45">
      <g>
       <use style="fill:#262626;stroke:#262626;stroke-width:0.4;" x="45.102986" xlink:href="#m2b792fbc7e" y="107.864269"/>
      </g>
     </g>
    </g>
    <g id="ytick_27">
     <g id="line2d_46">
      <g>
       <use style="fill:#262626;stroke:#262626;stroke-width:0.4;" x="45.102986" xlink:href="#m2b792fbc7e" y="103.998773"/>
      </g>
     </g>
    </g>
    <g id="ytick_28">
     <g id="line2d_47">
      <g>
       <use style="fill:#262626;stroke:#262626;stroke-width:0.4;" x="45.102986" xlink:href="#m2b792fbc7e" y="101.000462"/>
      </g>
     </g>
    </g>
    <g id="ytick_29">
     <g id="line2d_48">
      <g>
       <use style="fill:#262626;stroke:#262626;stroke-width:0.4;" x="45.102986" xlink:href="#m2b792fbc7e" y="98.550664"/>
      </g>
     </g>
    </g>
    <g id="ytick_30">
     <g id="line2d_49">
      <g>
       <use style="fill:#262626;stroke:#262626;stroke-width:0.4;" x="45.102986" xlink:href="#m2b792fbc7e" y="96.479389"/>
      </g>
     </g>
    </g>
    <g id="ytick_31">
     <g id="line2d_50">
      <g>
       <use style="fill:#262626;stroke:#262626;stroke-width:0.4;" x="45.102986" xlink:href="#m2b792fbc7e" y="94.685169"/>
      </g>
     </g>
    </g>
    <g id="ytick_32">
     <g id="line2d_51">
      <g>
       <use style="fill:#262626;stroke:#262626;stroke-width:0.4;" x="45.102986" xlink:href="#m2b792fbc7e" y="93.102554"/>
      </g>
     </g>
    </g>
    <g id="text_12">
     <text style="fill:#262626;font-family:Arial;font-size:8.8px;font-style:normal;font-weight:normal;text-anchor:middle;" transform="rotate(-90, 17.770861, 109.363424)" x="17.770861" y="109.363424">NA activity</text>
    </g>
   </g>
   <g id="PathCollection_9"/>
   <g id="PathCollection_10"/>
   <g id="line2d_52">
    <path clip-path="url(#p2220373912)" d="M 62.838672 94.685169 
" style="fill:none;stroke:#000000;stroke-linecap:round;stroke-width:2;"/>
   </g>
   <g id="line2d_53">
    <path clip-path="url(#p2220373912)" d="M 46.46727 91.686857 
L 57.381538 91.686857 
" style="fill:none;stroke:#000000;stroke-linecap:round;stroke-width:2;"/>
   </g>
   <g id="line2d_54">
    <path clip-path="url(#p2220373912)" d="M 60.110105 87.909542 
L 71.024374 87.909542 
" style="fill:none;stroke:#000000;stroke-linecap:round;stroke-width:2;"/>
   </g>
   <g id="line2d_55">
    <path clip-path="url(#p2220373912)" d="M 73.752941 91.181525 
L 84.667209 91.181525 
" style="fill:none;stroke:#000000;stroke-linecap:round;stroke-width:2;"/>
   </g>
   <g id="line2d_56">
    <path clip-path="url(#p2220373912)" d="M 87.395777 106.129854 
L 98.310045 106.129854 
" style="fill:none;stroke:#000000;stroke-linecap:round;stroke-width:2;"/>
   </g>
   <g id="line2d_57">
    <path clip-path="url(#p2220373912)" d="M 101.038612 121.307532 
L 111.952881 121.307532 
" style="fill:none;stroke:#000000;stroke-linecap:round;stroke-width:2;"/>
   </g>
   <g id="line2d_58">
    <path clip-path="url(#p2220373912)" d="M 114.681448 123.108811 
L 125.595716 123.108811 
" style="fill:none;stroke:#000000;stroke-linecap:round;stroke-width:2;"/>
   </g>
   <g id="patch_6">
    <path d="M 45.102986 134.937899 
L 45.102986 83.788949 
" style="fill:none;stroke:#262626;stroke-linecap:square;stroke-linejoin:miter;stroke-width:0.6;"/>
   </g>
   <g id="patch_7">
    <path d="M 45.102986 134.937899 
L 126.96 134.937899 
" style="fill:none;stroke:#262626;stroke-linecap:square;stroke-linejoin:miter;stroke-width:0.6;"/>
   </g>
   <g id="PathCollection_11">
    <defs>
     <path d="M 0 1.75 
C 0.464105 1.75 0.909265 1.565609 1.237437 1.237437 
C 1.565609 0.909265 1.75 0.464105 1.75 0 
C 1.75 -0.464105 1.565609 -0.909265 1.237437 -1.237437 
C 0.909265 -1.565609 0.464105 -1.75 0 -1.75 
C -0.464105 -1.75 -0.909265 -1.565609 -1.237437 -1.237437 
C -1.565609 -0.909265 -1.75 -0.464105 -1.75 0 
C -1.75 0.464105 -1.565609 0.909265 -1.237437 1.237437 
C -0.909265 1.565609 -0.464105 1.75 0 1.75 
z
" id="C6_0_ccdb17a28a"/>
    </defs>
    <g clip-path="url(#p2220373912)">
     <use style="fill:#ff7f0e;" x="51.924404" xlink:href="#C6_0_ccdb17a28a" y="93.181402"/>
    </g>
    <g clip-path="url(#p2220373912)">
     <use style="fill:#ff7f0e;" x="49.014131" xlink:href="#C6_0_ccdb17a28a" y="92.764836"/>
    </g>
    <g clip-path="url(#p2220373912)">
     <use style="fill:#ff7f0e;" x="51.924404" xlink:href="#C6_0_ccdb17a28a" y="89.436061"/>
    </g>
   </g>
   <g id="PathCollection_12">
    <defs>
     <path d="M 0 1.75 
C 0.464105 1.75 0.909265 1.565609 1.237437 1.237437 
C 1.565609 0.909265 1.75 0.464105 1.75 0 
C 1.75 -0.464105 1.565609 -0.909265 1.237437 -1.237437 
C 0.909265 -1.565609 0.464105 -1.75 0 -1.75 
C -0.464105 -1.75 -0.909265 -1.565609 -1.237437 -1.237437 
C -1.565609 -0.909265 -1.75 -0.464105 -1.75 0 
C -1.75 0.464105 -1.565609 0.909265 -1.237437 1.237437 
C -0.909265 1.565609 -0.464105 1.75 0 1.75 
z
" id="C7_0_e30bfd7606"/>
    </defs>
    <g clip-path="url(#p2220373912)">
     <use style="fill:#ff7f0e;" x="65.567239" xlink:href="#C7_0_e30bfd7606" y="89.790681"/>
    </g>
    <g clip-path="url(#p2220373912)">
     <use style="fill:#ff7f0e;" x="65.567239" xlink:href="#C7_0_e30bfd7606" y="86.25971"/>
    </g>
   </g>
   <g id="PathCollection_13">
    <defs>
     <path d="M 0 1.75 
C 0.464105 1.75 0.909265 1.565609 1.237437 1.237437 
C 1.565609 0.909265 1.75 0.464105 1.75 0 
C 1.75 -0.464105 1.565609 -0.909265 1.237437 -1.237437 
C 0.909265 -1.565609 0.464105 -1.75 0 -1.75 
C -0.464105 -1.75 -0.909265 -1.565609 -1.237437 -1.237437 
C -1.565609 -0.909265 -1.75 -0.464105 -1.75 0 
C -1.75 0.464105 -1.565609 0.909265 -1.237437 1.237437 
C -0.909265 1.565609 -0.464105 1.75 0 1.75 
z
" id="C8_0_9fab7a74b8"/>
    </defs>
    <g clip-path="url(#p2220373912)">
     <use style="fill:#ff7f0e;" x="79.210075" xlink:href="#C8_0_9fab7a74b8" y="91.652503"/>
    </g>
    <g clip-path="url(#p2220373912)">
     <use style="fill:#ff7f0e;" x="76.109017" xlink:href="#C8_0_9fab7a74b8" y="91.645371"/>
    </g>
    <g clip-path="url(#p2220373912)">
     <use style="fill:#ff7f0e;" x="79.210075" xlink:href="#C8_0_9fab7a74b8" y="90.292822"/>
    </g>
   </g>
   <g id="PathCollection_14">
    <defs>
     <path d="M 0 1.75 
C 0.464105 1.75 0.909265 1.565609 1.237437 1.237437 
C 1.565609 0.909265 1.75 0.464105 1.75 0 
C 1.75 -0.464105 1.565609 -0.909265 1.237437 -1.237437 
C 0.909265 -1.565609 0.464105 -1.75 0 -1.75 
C -0.464105 -1.75 -0.909265 -1.565609 -1.237437 -1.237437 
C -1.565609 -0.909265 -1.75 -0.464105 -1.75 0 
C -1.75 0.464105 -1.565609 0.909265 -1.237437 1.237437 
C -0.909265 1.565609 -0.464105 1.75 0 1.75 
z
" id="C9_0_2847937d15"/>
    </defs>
    <g clip-path="url(#p2220373912)">
     <use style="fill:#ff7f0e;" x="92.852911" xlink:href="#C9_0_2847937d15" y="108.062407"/>
    </g>
    <g clip-path="url(#p2220373912)">
     <use style="fill:#ff7f0e;" x="90.084674" xlink:href="#C9_0_2847937d15" y="106.487283"/>
    </g>
    <g clip-path="url(#p2220373912)">
     <use style="fill:#ff7f0e;" x="92.852911" xlink:href="#C9_0_2847937d15" y="104.13312"/>
    </g>
   </g>
   <g id="PathCollection_15">
    <defs>
     <path d="M 0 1.75 
C 0.464105 1.75 0.909265 1.565609 1.237437 1.237437 
C 1.565609 0.909265 1.75 0.464105 1.75 0 
C 1.75 -0.464105 1.565609 -0.909265 1.237437 -1.237437 
C 0.909265 -1.565609 0.464105 -1.75 0 -1.75 
C -0.464105 -1.75 -0.909265 -1.565609 -1.237437 -1.237437 
C -1.565609 -0.909265 -1.75 -0.464105 -1.75 0 
C -1.75 0.464105 -1.565609 0.909265 -1.237437 1.237437 
C -0.909265 1.565609 -0.464105 1.75 0 1.75 
z
" id="Ca_0_2768183eb4"/>
    </defs>
    <g clip-path="url(#p2220373912)">
     <use style="fill:#ff7f0e;" x="106.495746" xlink:href="#Ca_0_2768183eb4" y="123.568475"/>
    </g>
    <g clip-path="url(#p2220373912)">
     <use style="fill:#ff7f0e;" x="103.497116" xlink:href="#Ca_0_2768183eb4" y="120.862663"/>
    </g>
    <g clip-path="url(#p2220373912)">
     <use style="fill:#ff7f0e;" x="109.372614" xlink:href="#Ca_0_2768183eb4" y="119.770277"/>
    </g>
   </g>
   <g id="PathCollection_16">
    <defs>
     <path d="M 0 1.75 
C 0.464105 1.75 0.909265 1.565609 1.237437 1.237437 
C 1.565609 0.909265 1.75 0.464105 1.75 0 
C 1.75 -0.464105 1.565609 -0.909265 1.237437 -1.237437 
C 0.909265 -1.565609 0.464105 -1.75 0 -1.75 
C -0.464105 -1.75 -0.909265 -1.565609 -1.237437 -1.237437 
C -1.565609 -0.909265 -1.75 -0.464105 -1.75 0 
C -1.75 0.464105 -1.565609 0.909265 -1.237437 1.237437 
C -0.909265 1.565609 -0.464105 1.75 0 1.75 
z
" id="Cb_0_a7ed5469d9"/>
    </defs>
    <g clip-path="url(#p2220373912)">
     <use style="fill:#ff7f0e;" x="120.138582" xlink:href="#Cb_0_a7ed5469d9" y="125.074589"/>
    </g>
    <g clip-path="url(#p2220373912)">
     <use style="fill:#ff7f0e;" x="117.041995" xlink:href="#Cb_0_a7ed5469d9" y="124.3817"/>
    </g>
    <g clip-path="url(#p2220373912)">
     <use style="fill:#ff7f0e;" x="122.94009" xlink:href="#Cb_0_a7ed5469d9" y="120.365684"/>
    </g>
   </g>
  </g>
  <g id="text_13">
   <text style="fill:#262626;font-family:Arial;font-size:9.6px;font-style:normal;font-weight:normal;text-anchor:middle;" transform="rotate(-0, 70.56, 10.9035)" x="70.56" y="10.9035">WSN</text>
  </g>
 </g>
 <defs>
  <clipPath id="pf3935fdf7c">
   <rect height="51.148949" width="81.857014" x="45.102986" y="14.88"/>
  </clipPath>
  <clipPath id="p2220373912">
   <rect height="51.148949" width="81.857014" x="45.102986" y="83.788949"/>
  </clipPath>
 </defs>
</svg>
